<svg xmlns="http://www.w3.org/2000/svg" viewBox="0 0 27.09 15.73"><defs><style>.cls-1{fill:#c2c1c0;}</style></defs><title>ssb-icon</title><g id="Layer_2" data-name="Layer 2"><path class="cls-1" d="M16,11.67a2.91,2.91,0,0,0-2.47-1.52,1.44,1.44,0,0,0-1.61,1.31c0,.76.44,1.16,1.48,1.54l.91.32a8.61,8.61,0,0,1,2.91,1.58V11Z" transform="translate(-0.46 -6.86)"/><path class="cls-1" d="M13.51,15.62l-.82-.29c-2-.7-3.53-1.67-3.53-4a3.19,3.19,0,0,1,0-.42L8,11.67a2.91,2.91,0,0,0-2.47-1.52,1.44,1.44,0,0,0-1.61,1.31c0,.76.44,1.16,1.48,1.54l.91.32c2.86,1,4,2.28,4.09,4l.47-.25A3,3,0,0,0,13.6,19c1.08,0,1.92-.48,1.92-1.46S15,16.17,13.51,15.62Z" transform="translate(-0.46 -6.86)"/><path class="cls-1" d="M23.56,11.69c0-.85-.55-1.33-1.65-1.33H20V13h1.92C23.08,13,23.56,12.49,23.56,11.69Z" transform="translate(-0.46 -6.86)"/><path class="cls-1" d="M22.19,15.28H20v3.51H22.3c1.52,0,2.2-.63,2.2-1.8C24.51,16,23.82,15.28,22.19,15.28Z" transform="translate(-0.46 -6.86)"/><path class="cls-1" d="M24.48,6.86h-21A3.07,3.07,0,0,0,.46,9.93v9.6a3.07,3.07,0,0,0,3.06,3.06h21a3.07,3.07,0,0,0,3.06-3.06V9.93A3.07,3.07,0,0,0,24.48,6.86Zm-2,14.36H17.21v-1a5.47,5.47,0,0,1-3.61,1.29,5.23,5.23,0,0,1-4-1.76,5.21,5.21,0,0,1-4,1.76,5.07,5.07,0,0,1-4.9-3.29L2.79,17.1A3,3,0,0,0,5.57,19c1.08,0,1.92-.48,1.92-1.46s-.57-1.37-2-1.92l-.82-.29c-2-.7-3.53-1.67-3.53-4,0-2.13,2-3.65,4.37-3.65A5,5,0,0,1,9.57,9.78a4.45,4.45,0,0,1,4-2.08,4.93,4.93,0,0,1,3.69,1.61V7.93h5c2.75,0,4.14,1.56,4.14,3.34a2.77,2.77,0,0,1-1.77,2.58,3.62,3.62,0,0,1,2.73,3.48C27.28,19.74,25.76,21.23,22.46,21.23Z" transform="translate(-0.46 -6.86)"/></g></svg>